<svg width="22" height="28" viewBox="0 0 22 28" fill="none" xmlns="http://www.w3.org/2000/svg">
<path d="M20.5586 10.5273H1.93136C1.41699 10.5273 1 11.0012 1 11.5857V26.4029C1 26.9874 1.41699 27.4612 1.93136 27.4612H20.5586C21.073 27.4612 21.49 26.9874 21.49 26.4029V11.5857C21.49 11.0012 21.073 10.5273 20.5586 10.5273Z" stroke="#CACCCF" stroke-linecap="round" stroke-linejoin="round"/>
<path d="M7.05347 10.5253V5.76265C7.05347 4.49952 7.49503 3.28812 8.28102 2.39495C9.06701 1.50178 10.133 1 11.2446 1C12.3562 1 13.4222 1.50178 14.2082 2.39495C14.9942 3.28812 15.4357 4.49952 15.4357 5.76265V10.5253" stroke="#CACCCF" stroke-linecap="round" stroke-linejoin="round"/>
<path d="M11.3138 20.4226C12.1168 20.4226 12.7678 19.7716 12.7678 18.9686C12.7678 18.1656 12.1168 17.5146 11.3138 17.5146C10.5108 17.5146 9.85986 18.1656 9.85986 18.9686C9.85986 19.7716 10.5108 20.4226 11.3138 20.4226Z" fill="#DBDDE0" stroke="#CACCCF"/>
</svg>
