<svg width="25" height="25" viewBox="0 0 25 25" fill="none" xmlns="http://www.w3.org/2000/svg">
<path d="M12.5 24C18.8513 24 24 18.8513 24 12.5C24 6.14873 18.8513 1 12.5 1C6.14873 1 1 6.14873 1 12.5C1 18.8513 6.14873 24 12.5 24Z" stroke="#CACCCF" stroke-linecap="round" stroke-linejoin="round"/>
<path d="M12.5002 16.3333C15.1465 16.3333 17.2918 14.188 17.2918 11.5417C17.2918 8.8953 15.1465 6.75 12.5002 6.75C9.8538 6.75 7.7085 8.8953 7.7085 11.5417C7.7085 14.188 9.8538 16.3333 12.5002 16.3333Z" stroke="#CACCCF" stroke-linecap="round" stroke-linejoin="round"/>
<path d="M4.80884 21.0535C5.52988 19.6333 6.6301 18.4405 7.98756 17.6073C9.34502 16.7741 10.9067 16.333 12.4995 16.333C14.0922 16.333 15.6539 16.7741 17.0114 17.6073C18.3688 18.4405 19.4691 19.6333 20.1901 21.0535" stroke="#CACCCF" stroke-linecap="round" stroke-linejoin="round"/>
</svg>
